<?xml version="1.0" encoding="utf-8"?>
<!-- Generator: Adobe Illustrator 22.1.0, SVG Export Plug-In . SVG Version: 6.00 Build 0)  -->
<svg version="1.1" id="Warstwa_1" xmlns="http://www.w3.org/2000/svg" xmlns:xlink="http://www.w3.org/1999/xlink" x="0px" y="0px"
	 viewBox="0 0 750 750" style="enable-background:new 0 0 750 750;" xml:space="preserve">
<style type="text/css">
	.st0{fill:#FFFFFF;}
	.st1{fill:#449BFF;}
	.st2{fill:#FFFFFF;stroke:#449BFF;stroke-width:16;stroke-miterlimit:10;}
	.st3{fill:#FFFFFF;stroke:#449BFF;stroke-width:25;stroke-miterlimit:10;}
</style>
<circle class="st0" cx="375" cy="375" r="375"/>
<circle class="st1" cx="375" cy="373.2" r="274.1"/>
<path class="st2" d="M511.6,474H240.2c-11.8,0-21.4-9.6-21.4-21.4V271.4c0-11.8,9.6-21.4,21.4-21.4h271.4c11.8,0,21.4,9.6,21.4,21.4
	v181.1C533,464.4,523.4,474,511.6,474z"/>
<path class="st3" d="M375.9,400.1L218.7,268.9c0-10.4,8.4-18.9,18.9-18.9h276.6c10.4,0,18.9,8.4,18.9,18.9L375.9,400.1"/>
<line class="st3" x1="269" y1="425.3" x2="324.3" y2="357"/>
<line class="st3" x1="427.5" y1="357" x2="482.7" y2="425.3"/>
<polygon class="st3" points="375.9,400.1 227.5,287.6 227.5,273 533,268.9 "/>
</svg>
